<?xml version="1.0" encoding="UTF-8"?>
<svg xmlns="http://www.w3.org/2000/svg" viewBox="0 0 762.9 762.9">
  <defs>
    <style>
      .cls-1 {
        fill: #f2e7c4;
      }

      .cls-2 {
        fill: #d9af62;
      }

      .cls-3, .cls-4 {
        fill: #413c10;
      }

      .cls-4 {
        stroke: #413c10;
        stroke-miterlimit: 10;
        stroke-width: 12px;
      }

      .cls-5 {
        fill: #bfa980;
      }

      .cls-6 {
        fill: #a68181;
      }
    </style>
  </defs>
  <g id="Layer_2" data-name="Layer 2">
    <circle class="cls-6" cx="381.45" cy="381.45" r="381.45"/>
  </g>
  <g id="Layer_1" data-name="Layer 1">
    <g>
      <g>
        <path class="cls-1" d="M476.75,170.8c-3.7,7.76-6.35,16.45-6,24.92.3,4.15,1.24,9.09,5.03,11.04,5.5,2.36,11.85-.14,17.02-2.97,10.21-5.84,15-14.32,14.35-26.07-.64-10.91-5.01-22.31-12.08-30.82-3.45-3.97-6.97-7.13-11.75-7.69-6.9.22-13.58,6.05-18.88,10.47-29.68,25.69-50.49,60.45-65.34,96.53-12.22,31.79-19.31,65.17-23.62,98.97-4.68-34.18-1.8-69.3,7-102.64,2.97-10.57,6.76-20.89,11.15-30.93,12.59-28.68,30.26-55.63,54.01-76.39,3.66-3.08,7.48-6.27,11.4-9.02,11.55-8.04,26.64-11.82,39.5-3.43,22.95,14.7,34.47,55.13,18.45,78.18-7.77,10.61-20.96,17.35-34.11,17.31-13.51-.25-20.29-10.04-18.23-22.88,1.48-9.35,6.04-17.65,12.09-24.59h0Z"/>
        <path class="cls-1" d="M310.94,192.71c7.78,5.85,16.69,14.28,17.85,24.68.73,8.84-7.65,13.98-15.14,15.38-11.37,2.17-23.4-.1-32.86-7.02-21.58-16.84-16.64-55.1,3.75-70.9,20.82-15.95,51.28-1.66,65.64,16.47,15.06,19.2,20.61,46.23,24.67,69.75,5.49,35.09,5.53,71.25-1.24,105.81-1.73-15.58-3.34-30.93-5.69-46.11-3.35-22.56-7.97-44.99-14.06-66.96-4-13.87-8.27-28.42-15.26-40.69-4.11-7.33-9.58-13.53-16.71-17.83-16.03-9.41-27.34-8.64-34.59,9.86-3.82,10.56-3.93,25.06,6.62,31.71,6.38,4.14,15.25,6.4,22.79,4.68,2.51-.71,4.31-1.75,4.71-4.24.65-8.49-5.68-17.67-10.48-24.58h0Z"/>
        <path class="cls-1" d="M335.03,578.1c-10.87,9.06-16.78,21.98-12.37,35.82,4.33,14.45,18.75,30.57,34.86,29.44,14.45-1.91,25.02-18.67,24.05-32.68-.21-3.65-1.11-7.54-2.43-11.65-3-9.21-7.51-19.73-10.89-29.85-5.79-17.51-9.61-35.56-12.14-53.83-3.34-24.28-2.57-49.2,1.08-73.37,4.11-28.3,11.05-56.02,13.81-84.21,1.61-14.21,3.01-28.41,5.04-42.62,1.46,16.61,2.59,33.39,3.01,50.08.64,28.94-3.94,57.1-5.67,85.57-1.42,20.75-.93,41.28,2.29,61.82,3.36,22.83,8.97,45.26,17.02,66.92,5.54,15.1,10.59,31.67,4.19,47.72-9.89,26.07-38.77,41.09-62.57,21.65-12.18-9.87-20.24-25.39-19.64-41.21.42-12.97,9.16-24.05,20.36-29.61h0Z"/>
        <path class="cls-1" d="M552.17,436.6c-58.35-35.33-112.51-61.25-146.21-71.28,25.93-8.53,60.87-23.89,98.14-43.83,72.29-38.66,125.98-79.89,119.94-92.09-6.05-12.2-69.55,9.25-141.83,47.91-47.7,25.51-87.3,52.14-106.99,70.81-19.2-19.96-57.49-48.69-103.83-76.75-71.16-43.08-134.34-68.25-141.13-56.21-6.79,12.04,45.4,56.72,116.56,99.8,36.19,21.91,70.32,39.19,96.02,49.29-31.88,8.05-82.35,29.12-136.99,58.34-87.22,46.65-152,96.39-144.71,111.12,7.29,14.72,83.91-11.16,171.12-57.81,70.74-37.83,126.72-77.7,141.46-99.28,13.68,23.78,72.13,70.48,146.99,115.8,91.13,55.18,172.06,87.41,180.75,71.99,8.69-15.42-58.14-72.64-149.28-127.82Z"/>
      </g>
      <g>
        <path class="cls-5" d="M476.43,165.26c-3.7,7.76-6.35,16.45-6,24.92.3,4.15,1.24,9.09,5.03,11.04,5.5,2.36,11.85-.14,17.02-2.97,10.21-5.84,15-14.32,14.35-26.07-.64-10.91-5.01-22.31-12.08-30.82-3.45-3.97-6.97-7.13-11.75-7.69-6.9.22-13.58,6.05-18.88,10.47-29.68,25.69-50.49,60.45-65.34,96.53-12.22,31.79-19.31,65.17-23.62,98.97-4.68-34.18-1.8-69.3,7-102.64,2.97-10.57,6.76-20.89,11.15-30.93,12.59-28.68,30.26-55.63,54.01-76.39,3.66-3.08,7.48-6.27,11.4-9.02,11.55-8.04,26.64-11.82,39.5-3.43,22.95,14.7,34.47,55.13,18.45,78.18-7.77,10.61-20.96,17.35-34.11,17.31-13.51-.25-20.29-10.04-18.23-22.88,1.48-9.35,6.04-17.65,12.09-24.59h0Z"/>
        <path class="cls-5" d="M310.62,187.17c7.78,5.85,16.69,14.28,17.85,24.68.73,8.84-7.65,13.98-15.14,15.38-11.37,2.17-23.4-.1-32.86-7.02-21.58-16.84-16.64-55.1,3.75-70.9,20.82-15.95,51.28-1.66,65.64,16.47,15.06,19.2,20.61,46.23,24.67,69.75,5.49,35.09,5.53,71.25-1.24,105.81-1.73-15.58-3.34-30.93-5.69-46.11-3.35-22.56-7.97-44.99-14.06-66.96-4-13.87-8.27-28.42-15.26-40.69-4.11-7.33-9.58-13.53-16.71-17.83-16.03-9.41-27.34-8.64-34.59,9.86-3.82,10.56-3.93,25.06,6.62,31.71,6.38,4.14,15.25,6.4,22.79,4.68,2.51-.71,4.31-1.75,4.71-4.24.65-8.49-5.68-17.67-10.48-24.58h0Z"/>
        <path class="cls-5" d="M334.71,572.55c-10.87,9.06-16.78,21.98-12.37,35.82,4.33,14.45,18.75,30.57,34.86,29.44,14.45-1.91,25.02-18.67,24.05-32.68-.21-3.65-1.11-7.54-2.43-11.65-3-9.21-7.51-19.73-10.89-29.85-5.79-17.51-9.61-35.56-12.14-53.83-3.34-24.28-2.57-49.2,1.08-73.37,4.11-28.3,11.05-56.02,13.81-84.21,1.61-14.21,3.01-28.41,5.04-42.62,1.46,16.61,2.59,33.39,3.01,50.08.64,28.94-3.94,57.1-5.67,85.57-1.42,20.75-.93,41.28,2.29,61.82,3.36,22.83,8.97,45.26,17.02,66.92,5.54,15.1,10.59,31.67,4.19,47.72-9.89,26.07-38.77,41.09-62.57,21.65-12.18-9.87-20.24-25.39-19.64-41.21.42-12.97,9.16-24.05,20.36-29.61h0Z"/>
        <path class="cls-5" d="M551.85,431.06c-58.35-35.33-112.51-61.25-146.21-71.28,25.93-8.53,60.87-23.89,98.14-43.83,72.29-38.66,125.98-79.89,119.94-92.09-6.05-12.2-69.55,9.25-141.83,47.91-47.7,25.51-87.3,52.14-106.99,70.81-19.2-19.96-57.49-48.69-103.83-76.75-71.16-43.08-134.34-68.25-141.13-56.21-6.79,12.04,45.4,56.72,116.56,99.8,36.19,21.91,70.32,39.19,96.02,49.29-31.88,8.05-82.35,29.12-136.99,58.34-87.22,46.65-152,96.39-144.71,111.12,7.29,14.72,83.91-11.16,171.12-57.81,70.74-37.83,126.72-77.7,141.46-99.28,13.68,23.78,72.13,70.48,146.99,115.8,91.13,55.18,172.06,87.41,180.75,71.99,8.69-15.42-58.14-72.64-149.28-127.82Z"/>
      </g>
      <g>
        <path class="cls-2" d="M477.01,160.78c-3.7,7.76-6.35,16.45-6,24.92.3,4.15,1.24,9.09,5.03,11.04,5.5,2.36,11.85-.14,17.02-2.97,10.21-5.84,15-14.32,14.35-26.07-.64-10.91-5.01-22.31-12.08-30.82-3.45-3.97-6.97-7.13-11.75-7.69-6.9.22-13.58,6.05-18.88,10.47-29.68,25.69-50.49,60.45-65.34,96.53-12.22,31.79-19.31,65.17-23.62,98.97-4.68-34.18-1.8-69.3,7-102.64,2.97-10.57,6.76-20.89,11.15-30.93,12.59-28.68,30.26-55.63,54.01-76.39,3.66-3.08,7.48-6.27,11.4-9.02,11.55-8.04,26.64-11.82,39.5-3.43,22.95,14.7,34.47,55.13,18.45,78.18-7.77,10.61-20.96,17.35-34.11,17.31-13.51-.25-20.29-10.04-18.23-22.88,1.48-9.35,6.04-17.65,12.09-24.59h0Z"/>
        <path class="cls-2" d="M311.21,182.69c7.78,5.85,16.69,14.28,17.85,24.68.73,8.84-7.65,13.98-15.14,15.38-11.37,2.17-23.4-.1-32.86-7.02-21.58-16.84-16.64-55.1,3.75-70.9,20.82-15.95,51.28-1.66,65.64,16.47,15.06,19.2,20.61,46.23,24.67,69.75,5.49,35.09,5.53,71.25-1.24,105.81-1.73-15.58-3.34-30.93-5.69-46.11-3.35-22.56-7.97-44.99-14.06-66.96-4-13.87-8.27-28.42-15.26-40.69-4.11-7.33-9.58-13.53-16.71-17.83-16.03-9.41-27.34-8.64-34.59,9.86-3.82,10.56-3.93,25.06,6.62,31.71,6.38,4.14,15.25,6.4,22.79,4.68,2.51-.71,4.31-1.75,4.71-4.24.65-8.49-5.68-17.67-10.48-24.58h0Z"/>
        <path class="cls-2" d="M335.29,568.08c-10.87,9.06-16.78,21.98-12.37,35.82,4.33,14.45,18.75,30.57,34.86,29.44,14.45-1.91,25.02-18.67,24.05-32.68-.21-3.65-1.11-7.54-2.43-11.65-3-9.21-7.51-19.73-10.89-29.85-5.79-17.51-9.61-35.56-12.14-53.83-3.34-24.28-2.57-49.2,1.08-73.37,4.11-28.3,11.05-56.02,13.81-84.21,1.61-14.21,3.01-28.41,5.04-42.62,1.46,16.61,2.59,33.39,3.01,50.08.64,28.94-3.94,57.1-5.67,85.57-1.42,20.75-.93,41.28,2.29,61.82,3.36,22.83,8.97,45.26,17.02,66.92,5.54,15.1,10.59,31.67,4.19,47.72-9.89,26.07-38.77,41.09-62.57,21.65-12.18-9.87-20.24-25.39-19.64-41.21.42-12.97,9.16-24.05,20.36-29.61h0Z"/>
        <g>
          <path class="cls-6" d="M552.44,426.58c-58.35-35.33-112.51-61.25-146.21-71.28,25.93-8.53,60.87-23.89,98.14-43.83,72.29-38.66,125.98-79.89,119.94-92.09-6.05-12.2-69.55,9.25-141.83,47.91-47.7,25.51-87.3,52.14-106.99,70.81-19.2-19.96-57.49-48.69-103.83-76.75-71.16-43.08-134.34-68.25-141.13-56.21-6.79,12.04,45.4,56.72,116.56,99.8,36.19,21.91,70.32,39.19,96.02,49.29-31.88,8.05-82.35,29.12-136.99,58.34-87.22,46.65-152,96.39-144.71,111.12,7.29,14.72,83.91-11.16,171.12-57.81,70.74-37.83,126.72-77.7,141.46-99.28,13.68,23.78,72.13,70.48,146.99,115.8,91.13,55.18,172.06,87.41,180.75,71.99,8.69-15.42-58.14-72.64-149.28-127.82Z"/>
          <path class="cls-2" d="M552.44,426.58c-46.64-27.59-94.48-54.5-146.23-71.22,20.54-7.16,42.59-16.33,62.81-26.09,40.79-19.71,80.55-41.93,117.34-68.44,9.13-6.7,18.1-13.69,26.23-21.57,5.08-5.05,19.49-19.51,7.15-22.67-4.15-.87-8.45-.37-12.62.22-8.39,1.31-16.59,3.68-24.67,6.25-32.3,10.66-63.16,25.27-93.29,40.94-30.05,15.87-59.47,33.1-87.08,52.94-9.25,6.69-18.28,13.73-26.6,21.54-8.04-8.27-16.79-15.82-25.79-23.05-44.97-35.4-94.21-65.42-145.62-90.51-15.51-7.33-31.27-14.3-47.73-19.18-6.79-1.83-13.88-3.89-20.95-2.99-19.97,4.18,25.28,41.15,31.28,46.02,54.28,42.66,114.17,79.11,178.01,105.55-56.3,15.44-108.81,42.37-159.77,70.38-25.17,14.23-49.87,29.37-73.43,46.14-14.6,10.59-29.16,21.48-41.4,34.79-4.23,4.94-11.13,12.88-8.05,18.38,4.98,6.61,23.7,2,30.89.46,48.99-12.87,94.83-35.59,139.57-58.93,41.23-22.41,82.05-46.33,118.48-76.07,8.28-7.04,16.73-14.38,23.01-23.3,0,0,.2.3.2.3,0,0,2.5,3.83,2.5,3.83,3.51,4.99,7.61,9.61,11.85,13.98,20.4,20.78,43.81,38.34,67.38,55.33,50.11,35.2,102.93,66.85,158.35,92.97,22.26,10.05,44.87,20.32,69.01,24.82,16.23,2.73,25.65-1.65,13.77-18.66-7.12-9.99-16.07-18.51-25.1-26.76-36.73-32.52-77.75-59.84-119.51-85.43h0ZM552.44,426.58c41.79,25.55,82.83,52.84,119.59,85.34,9.04,8.25,18,16.76,25.14,26.77,11.04,15.74,4.36,21.98-13.92,18.91-24.16-4.48-46.8-14.75-69.08-24.78-55.46-26.09-108.31-57.7-158.47-92.87-23.61-16.98-47.05-34.55-67.49-55.33-4.27-4.38-8.38-9.02-11.91-14.03,0,0-2.52-3.86-2.52-3.86l.39.02c-6.31,8.86-14.65,16.12-22.88,23.13-25.11,20.77-52.73,38.27-80.66,54.96-37.46,21.94-76.09,41.96-116.07,58.93-12.36,5.35-98.55,41.06-93.8,15.17,9.65-28.18,95.37-78.88,123.72-94.96,37.86-21.24,76.8-40.73,117.25-56.56,13.51-5.21,27.19-10.03,41.24-13.64,0,0-.06.94-.06.94-42.54-17.24-82.48-40.24-121.01-65.04-28.56-19.02-57.23-38.64-81.11-63.48-6.65-7.01-20.92-24.97-1.18-24.4,5.78.26,11.4,1.69,16.93,3.26,16.51,4.91,32.3,11.9,47.83,19.26,51.44,25.15,100.68,55.23,145.68,90.7,8.93,7.18,17.62,14.69,25.63,22.92h-.39c8.3-7.77,17.27-14.75,26.47-21.38,27.65-19.84,57.1-37.06,87.18-52.91,30.17-15.66,61.06-30.25,93.39-40.9,10.8-3.31,21.84-6.79,33.23-6.92,19.07.46,4.17,17.14-2.76,23.69-24.93,23.22-54.3,41.06-83.53,58.28-39.29,22.23-80.38,43.34-123.04,57.47,51.75,16.76,99.57,43.72,146.2,71.34h0Z"/>
        </g>
      </g>
      <g>
        <path class="cls-3" d="M477.18,154.48c-3.7,7.76-6.35,16.45-6,24.92.3,4.15,1.24,9.09,5.03,11.04,5.5,2.36,11.85-.14,17.02-2.97,10.21-5.84,15-14.32,14.35-26.07-.64-10.91-5.01-22.31-12.08-30.82-3.45-3.97-6.97-7.13-11.75-7.69-6.9.22-13.58,6.05-18.88,10.47-29.68,25.69-50.49,60.45-65.34,96.53-12.22,31.79-19.31,65.17-23.62,98.97-4.68-34.18-1.8-69.3,7-102.64,2.97-10.57,6.76-20.89,11.15-30.93,12.59-28.68,30.26-55.63,54.01-76.39,3.66-3.08,7.48-6.27,11.4-9.02,11.55-8.04,26.64-11.82,39.5-3.43,22.95,14.7,34.47,55.13,18.45,78.18-7.77,10.61-20.96,17.35-34.11,17.31-13.51-.25-20.29-10.04-18.23-22.88,1.48-9.35,6.04-17.65,12.09-24.59h0Z"/>
        <path class="cls-3" d="M311.38,176.39c7.78,5.85,16.69,14.28,17.85,24.68.73,8.84-7.65,13.98-15.14,15.38-11.37,2.17-23.4-.1-32.86-7.02-21.58-16.84-16.64-55.1,3.75-70.9,20.82-15.95,51.28-1.66,65.64,16.47,15.06,19.2,20.61,46.23,24.67,69.75,5.49,35.09,5.53,71.25-1.24,105.81-1.73-15.58-3.34-30.93-5.69-46.11-3.35-22.56-7.97-44.99-14.06-66.96-4-13.87-8.27-28.42-15.26-40.69-4.11-7.33-9.58-13.53-16.71-17.83-16.03-9.41-27.34-8.64-34.59,9.86-3.82,10.56-3.93,25.06,6.62,31.71,6.38,4.14,15.25,6.4,22.79,4.68,2.51-.71,4.31-1.75,4.71-4.24.65-8.5-5.68-17.67-10.48-24.58h0Z"/>
        <path class="cls-3" d="M335.46,561.78c-10.87,9.06-16.78,21.98-12.37,35.82,4.33,14.45,18.75,30.57,34.86,29.44,14.45-1.91,25.02-18.67,24.05-32.68-.21-3.65-1.11-7.54-2.43-11.65-3-9.21-7.51-19.73-10.89-29.85-5.79-17.51-9.61-35.56-12.14-53.83-3.34-24.28-2.57-49.2,1.08-73.37,4.11-28.3,11.05-56.02,13.81-84.21,1.61-14.21,3.01-28.41,5.04-42.62,1.46,16.61,2.59,33.39,3.01,50.08.64,28.94-3.94,57.1-5.67,85.57-1.42,20.75-.93,41.28,2.29,61.82,3.36,22.83,8.97,45.26,17.02,66.92,5.54,15.1,10.59,31.67,4.19,47.72-9.89,26.07-38.77,41.09-62.57,21.65-12.18-9.87-20.24-25.39-19.64-41.21.42-12.97,9.16-24.05,20.36-29.61h0Z"/>
        <path class="cls-4" d="M552.61,420.28c-58.35-35.33-112.51-61.25-146.21-71.28,25.93-8.53,60.87-23.89,98.14-43.83,72.29-38.66,125.98-79.89,119.94-92.09-6.05-12.2-69.55,9.25-141.83,47.91-47.7,25.51-87.3,52.14-106.99,70.81-19.2-19.96-57.49-48.69-103.83-76.75-71.16-43.08-134.34-68.25-141.13-56.21-6.79,12.04,45.4,56.72,116.56,99.8,36.19,21.91,70.32,39.19,96.02,49.29-31.88,8.05-82.35,29.12-136.99,58.34-87.22,46.65-152,96.39-144.71,111.12,7.29,14.72,83.91-11.16,171.12-57.81,70.74-37.83,126.72-77.7,141.46-99.28,13.68,23.78,72.13,70.48,146.99,115.8,91.13,55.18,172.06,87.41,180.75,71.99,8.69-15.42-58.14-72.64-149.28-127.82Z"/>
      </g>
    </g>
  </g>
</svg>