<?xml version="1.0" encoding="UTF-8"?>
<svg id="Layer_2" data-name="Layer 2" xmlns="http://www.w3.org/2000/svg" viewBox="0 0 762.9 762.9">
  <defs>
    <style>
      .cls-1 {
        fill: #f2e7c4;
      }

      .cls-2, .cls-3 {
        fill: #413c10;
      }

      .cls-3 {
        stroke: #413c10;
        stroke-miterlimit: 10;
        stroke-width: 12px;
      }
    </style>
  </defs>
  <g id="Layer_5" data-name="Layer 5">
    <circle class="cls-1" cx="381.45" cy="381.45" r="381.45"/>
  </g>
  <g id="Layer_3" data-name="Layer 3">
    <g>
      <path class="cls-2" d="M504.77,110.55c-3.95,9.99-7.04,20.64-7.46,31.21-.1,3.69.06,14.05,4.76,13.98,9.32-.53,19.27-10.33,24.12-18.11,6.95-11.62,7.29-26.05,4.85-39.14-1.54-8.14-4.83-17.37-9.83-23.36-1.26-1.49-3.07-3.16-4.24-3.16-.21.02.63.04.33.09-1.6.49-3.15,1.2-5.05,2.48-3.33,2.17-6.91,5.59-9.71,8.61-3.2,3.19-7.64,7.8-10.48,11.24-3.02,3.25-7.14,8.35-9.92,11.91-13.02,16.42-24.42,34.23-34.76,52.49-8.51,14.95-16.35,30.58-23.47,46.25-14.66,33.16-25.9,68.05-35.31,103.27-2.8,10.59-5.4,21.28-8.09,32.08-.88-11.08-1.05-22.21-.74-33.35,1.52-50.46,12.55-101.08,33.46-147.16,11.11-24.66,24.7-48.4,41.09-70,3.13-3.84,7.68-9.8,11.02-13.45,1.46-1.6,4.38-4.9,5.85-6.49,1.97-2.37,7.07-7.13,9.28-9.36,14.62-14.99,36.24-26.95,55.42-12.23,18.56,14.74,23.9,43.48,21.54,65.57-2.44,23.83-15.32,43.93-37.74,53.42-16.15,7.05-33.98,2.58-32.71-17.87,1.19-14.58,8.71-27.92,17.77-38.9h0Z"/>
      <path class="cls-2" d="M276.01,124.07c10.42,8.63,24.05,22.12,27.12,35.8,2.95,17.23-15.69,20.58-28.64,17.49-21.57-4.5-39.06-20.32-46.69-40.92-8.27-21.4-9.19-53.57,11.53-68.91,25.87-17.78,61.65,9.93,77.87,29.78,14.07,17.25,23.65,38.31,31.28,58.86,17.95,49.61,28.92,101.76,31.18,154.44.47,10.48.45,20.98-.03,31.47-5.96-19.98-11.47-39.91-17.72-59.69-10.61-34.29-22.43-67.83-35.81-101.02-11.67-27.5-23.15-57.14-46.33-76.59-4.98-4.17-11.43-8.64-16.98-10.93-2.51-.99-4.39-1.57-6.6-1.51-.73.33-1.23.87-2.09,2.1-1.4,2.13-2.75,5.55-3.45,9.35-1.55,7.88-1.05,16.81.98,24.74,1.55,6.03,3.97,11.86,7.67,16.86,6.03,8.23,15.84,15.15,25.74,17.39,1.86.46,3.89.45,5.62.3.15.04.24.16.49-.1.66-1.17.51-3.24.29-4.82-.32-2.13-.91-4.44-1.69-6.74-3.27-9.5-8.46-18.62-13.74-27.35h0Z"/>
      <path class="cls-2" d="M340.36,620.52c-15.45,16.66-15.36,37.27-3.78,55.93,6.05,9.82,20.34,24.84,32,15.51,7.57-6.09,12.03-16.34,13.03-26.01.84-8.83-1.57-17.11-4.36-26.03-3.32-10.21-7.1-20.92-10.11-31.49-8.98-33.09-13.99-66.79-13.74-101.33.44-50.56,14.37-98.32,20.37-147.64,2.22-16.4,4.27-32.73,7.3-49.08,3.01,22,5.2,43.9,6.17,66.1,1.36,43.7-5.27,87.31-3.46,130.26.79,20.81,3.5,41.77,7.24,62.6,1.87,10.27,4,20.68,6.57,30.75,2.72,10.57,5.92,20.62,8.79,31.43,3.26,12.01,5.61,25.71,3.11,38.67-2.61,13.67-9,26.09-19.26,35.79-51.11,45.12-103.12-56.08-49.87-85.44h0Z"/>
      <path class="cls-3" d="M412.52,345.57c18.51-10.1,49-24.88,88.68-35.21,113.71-29.63,190.54,6.46,209.38-25.36,13.72-23.18-8.98-72.8-42.97-92.59-61.78-35.98-176.61,17.44-285.83,135.97-112.56-120.29-228.51-171.6-287.46-134.74-38.77,24.24-57.4,89.44-37.36,113.43,25.89,30.99,102.07-23.87,211.92,3.29,36.26,8.96,63.8,23.8,80.5,34.15-160.08-35.89-280.92,21.37-298.65,93.09-13.82,55.9,32.21,131.87,88.08,147.17,74.81,20.48,188.47-62.03,241.46-227.89,6.63,154.46,114.91,248.84,200.05,238.36,73.16-9.01,142.62-97.09,128.38-158.94-15.55-67.52-135.16-122.56-296.19-90.72Z"/>
    </g>
  </g>
</svg>